<mxfile host="app.diagrams.net" modified="2024-01-26T08:21:33.246Z" agent="Mozilla/5.0 (Windows NT 10.0; Win64; x64) AppleWebKit/537.36 (KHTML, like Gecko) Chrome/120.0.0.0 Safari/537.36 Edg/120.0.0.0" etag="itE0uQv1n29m0_tQx6GZ" version="23.0.2" type="github">
  <diagram name="第 1 页" id="Pw2Rt3yeFEb-aYBZEZ-E">
    <mxGraphModel dx="726" dy="427" grid="1" gridSize="10" guides="1" tooltips="1" connect="1" arrows="1" fold="1" page="1" pageScale="1" pageWidth="827" pageHeight="1169" math="0" shadow="0">
      <root>
        <mxCell id="0" />
        <mxCell id="1" parent="0" />
        <mxCell id="EP2WrfBbjCN14_dutKTK-12" value="" style="rounded=0;whiteSpace=wrap;html=1;fillColor=#dae8fc;strokeColor=#6c8ebf;shadow=0;glass=1;" parent="1" vertex="1">
          <mxGeometry x="230" y="120" width="480" height="240" as="geometry" />
        </mxCell>
        <mxCell id="EP2WrfBbjCN14_dutKTK-7" style="edgeStyle=orthogonalEdgeStyle;rounded=0;orthogonalLoop=1;jettySize=auto;html=1;exitX=1;exitY=0.5;exitDx=0;exitDy=0;" parent="1" source="EP2WrfBbjCN14_dutKTK-1" edge="1">
          <mxGeometry relative="1" as="geometry">
            <mxPoint x="410" y="180" as="targetPoint" />
          </mxGeometry>
        </mxCell>
        <mxCell id="EP2WrfBbjCN14_dutKTK-1" value="一级审核" style="shape=process;whiteSpace=wrap;html=1;backgroundOutline=1;" parent="1" vertex="1">
          <mxGeometry x="250" y="150" width="120" height="60" as="geometry" />
        </mxCell>
        <mxCell id="EP2WrfBbjCN14_dutKTK-8" style="edgeStyle=orthogonalEdgeStyle;rounded=0;orthogonalLoop=1;jettySize=auto;html=1;exitX=1;exitY=0.5;exitDx=0;exitDy=0;entryX=0;entryY=0.5;entryDx=0;entryDy=0;" parent="1" source="EP2WrfBbjCN14_dutKTK-2" target="EP2WrfBbjCN14_dutKTK-3" edge="1">
          <mxGeometry relative="1" as="geometry" />
        </mxCell>
        <mxCell id="EP2WrfBbjCN14_dutKTK-2" value="二级审核" style="shape=process;whiteSpace=wrap;html=1;backgroundOutline=1;" parent="1" vertex="1">
          <mxGeometry x="414" y="150" width="120" height="60" as="geometry" />
        </mxCell>
        <mxCell id="EP2WrfBbjCN14_dutKTK-3" value="三级审核" style="shape=process;whiteSpace=wrap;html=1;backgroundOutline=1;" parent="1" vertex="1">
          <mxGeometry x="570" y="150" width="120" height="60" as="geometry" />
        </mxCell>
        <mxCell id="EP2WrfBbjCN14_dutKTK-9" style="edgeStyle=orthogonalEdgeStyle;rounded=0;orthogonalLoop=1;jettySize=auto;html=1;exitX=0.5;exitY=0;exitDx=0;exitDy=0;entryX=0.5;entryY=1;entryDx=0;entryDy=0;" parent="1" source="EP2WrfBbjCN14_dutKTK-4" target="EP2WrfBbjCN14_dutKTK-1" edge="1">
          <mxGeometry relative="1" as="geometry" />
        </mxCell>
        <mxCell id="EP2WrfBbjCN14_dutKTK-4" value="专业代理自审" style="rounded=0;whiteSpace=wrap;html=1;" parent="1" vertex="1">
          <mxGeometry x="250" y="270" width="120" height="60" as="geometry" />
        </mxCell>
        <mxCell id="EP2WrfBbjCN14_dutKTK-10" style="edgeStyle=orthogonalEdgeStyle;rounded=0;orthogonalLoop=1;jettySize=auto;html=1;exitX=0.5;exitY=0;exitDx=0;exitDy=0;entryX=0.5;entryY=1;entryDx=0;entryDy=0;" parent="1" source="EP2WrfBbjCN14_dutKTK-5" target="EP2WrfBbjCN14_dutKTK-2" edge="1">
          <mxGeometry relative="1" as="geometry" />
        </mxCell>
        <mxCell id="EP2WrfBbjCN14_dutKTK-5" value="项目负责审核" style="rounded=0;whiteSpace=wrap;html=1;" parent="1" vertex="1">
          <mxGeometry x="414" y="270" width="120" height="60" as="geometry" />
        </mxCell>
        <mxCell id="EP2WrfBbjCN14_dutKTK-11" style="edgeStyle=orthogonalEdgeStyle;rounded=0;orthogonalLoop=1;jettySize=auto;html=1;exitX=0.5;exitY=0;exitDx=0;exitDy=0;entryX=0.5;entryY=1;entryDx=0;entryDy=0;" parent="1" source="EP2WrfBbjCN14_dutKTK-6" target="EP2WrfBbjCN14_dutKTK-3" edge="1">
          <mxGeometry relative="1" as="geometry" />
        </mxCell>
        <mxCell id="EP2WrfBbjCN14_dutKTK-6" value="技术负责人审核" style="rounded=0;whiteSpace=wrap;html=1;" parent="1" vertex="1">
          <mxGeometry x="570" y="270" width="120" height="60" as="geometry" />
        </mxCell>
        <mxCell id="BcrgW8MNybgwhnt5Eieb-1" value="" style="rounded=0;whiteSpace=wrap;html=1;fillColor=#dae8fc;strokeColor=#6c8ebf;shadow=0;glass=1;" vertex="1" parent="1">
          <mxGeometry x="230" y="390" width="480" height="240" as="geometry" />
        </mxCell>
        <mxCell id="BcrgW8MNybgwhnt5Eieb-2" style="edgeStyle=orthogonalEdgeStyle;rounded=0;orthogonalLoop=1;jettySize=auto;html=1;exitX=1;exitY=0.5;exitDx=0;exitDy=0;" edge="1" parent="1" source="BcrgW8MNybgwhnt5Eieb-3">
          <mxGeometry relative="1" as="geometry">
            <mxPoint x="410" y="450" as="targetPoint" />
          </mxGeometry>
        </mxCell>
        <mxCell id="BcrgW8MNybgwhnt5Eieb-3" value="一级审核" style="shape=process;whiteSpace=wrap;html=1;backgroundOutline=1;" vertex="1" parent="1">
          <mxGeometry x="250" y="420" width="120" height="60" as="geometry" />
        </mxCell>
        <mxCell id="BcrgW8MNybgwhnt5Eieb-4" style="edgeStyle=orthogonalEdgeStyle;rounded=0;orthogonalLoop=1;jettySize=auto;html=1;exitX=1;exitY=0.5;exitDx=0;exitDy=0;entryX=0;entryY=0.5;entryDx=0;entryDy=0;" edge="1" parent="1" source="BcrgW8MNybgwhnt5Eieb-5" target="BcrgW8MNybgwhnt5Eieb-6">
          <mxGeometry relative="1" as="geometry" />
        </mxCell>
        <mxCell id="BcrgW8MNybgwhnt5Eieb-5" value="二级审核" style="shape=process;whiteSpace=wrap;html=1;backgroundOutline=1;" vertex="1" parent="1">
          <mxGeometry x="414" y="420" width="120" height="60" as="geometry" />
        </mxCell>
        <mxCell id="BcrgW8MNybgwhnt5Eieb-6" value="三级审核" style="shape=process;whiteSpace=wrap;html=1;backgroundOutline=1;" vertex="1" parent="1">
          <mxGeometry x="570" y="420" width="120" height="60" as="geometry" />
        </mxCell>
        <mxCell id="BcrgW8MNybgwhnt5Eieb-7" style="edgeStyle=orthogonalEdgeStyle;rounded=0;orthogonalLoop=1;jettySize=auto;html=1;exitX=0.5;exitY=0;exitDx=0;exitDy=0;entryX=0.5;entryY=1;entryDx=0;entryDy=0;" edge="1" parent="1" source="BcrgW8MNybgwhnt5Eieb-8" target="BcrgW8MNybgwhnt5Eieb-3">
          <mxGeometry relative="1" as="geometry" />
        </mxCell>
        <mxCell id="BcrgW8MNybgwhnt5Eieb-8" value="业务项目负责人自审" style="rounded=0;whiteSpace=wrap;html=1;" vertex="1" parent="1">
          <mxGeometry x="250" y="540" width="120" height="60" as="geometry" />
        </mxCell>
        <mxCell id="BcrgW8MNybgwhnt5Eieb-9" style="edgeStyle=orthogonalEdgeStyle;rounded=0;orthogonalLoop=1;jettySize=auto;html=1;exitX=0.5;exitY=0;exitDx=0;exitDy=0;entryX=0.5;entryY=1;entryDx=0;entryDy=0;" edge="1" parent="1" source="BcrgW8MNybgwhnt5Eieb-10" target="BcrgW8MNybgwhnt5Eieb-5">
          <mxGeometry relative="1" as="geometry" />
        </mxCell>
        <mxCell id="BcrgW8MNybgwhnt5Eieb-10" value="部门审核" style="rounded=0;whiteSpace=wrap;html=1;" vertex="1" parent="1">
          <mxGeometry x="414" y="540" width="120" height="60" as="geometry" />
        </mxCell>
        <mxCell id="BcrgW8MNybgwhnt5Eieb-11" style="edgeStyle=orthogonalEdgeStyle;rounded=0;orthogonalLoop=1;jettySize=auto;html=1;exitX=0.5;exitY=0;exitDx=0;exitDy=0;entryX=0.5;entryY=1;entryDx=0;entryDy=0;" edge="1" parent="1" source="BcrgW8MNybgwhnt5Eieb-12" target="BcrgW8MNybgwhnt5Eieb-6">
          <mxGeometry relative="1" as="geometry" />
        </mxCell>
        <mxCell id="BcrgW8MNybgwhnt5Eieb-12" value="技术负责人审核" style="rounded=0;whiteSpace=wrap;html=1;" vertex="1" parent="1">
          <mxGeometry x="570" y="540" width="120" height="60" as="geometry" />
        </mxCell>
      </root>
    </mxGraphModel>
  </diagram>
</mxfile>
